<svg xmlns="http://www.w3.org/2000/svg" width="64" height="64" viewBox="0 0 16.9 16.9"><g transform="translate(4.8 4.5) scale(.23842)" fill="#fff"><path d="M4 1.7s16.9 2 29.5 14.3v-4.7s-4 .1-5.2-2.6c-1.4-2.8.2-4.2.2-4.2S24-1 17.5-1.8c0 0-1 4-5.8 3.4 0 0-2.8-.3-3.3-2.3 0 0-2.8 1-4.4 2.4zm-8.6 18.2s16.4 0 29.3 13.9L23 35.6s-1.5-4-5.4-3.6c-2.5.3-4 1.5-4.7 4.2l-1.6.4S10 29.5 1.9 30l.1-.8s1.6-4-.8-6.3c-2.5-2.2-5.7-.5-5.7-.5s-.7-2.1-.1-2.5zM-8 4l9.2.4s.4 7.7-5.7 8.9L-8 4"/><path d="M12.5-8.5 9.3-1.8S10 .4 13 .4c2.5 0 3.5-2.9 3.5-2.9l-4-6zm7.9 5.8 6.9-4.1L27 .9s-1.7-2.2-6.8-3.6zm9.1 7.2s-1.6 5 4.4 5.7L36.4 4z"/><circle r="4.7" cy="15.3" cx="14.9"/><path d="M32.7 19.1C20.8 4.5 2 4 2 4s1.2 3.5-.6 6.9c-1.9 3.3-6.3 3.8-6.3 3.8a8 8 0 0 0 0 3C12.8 17 27 33 27 33c1.5-2 1.7-3.7 1.7-3.7s-1.3-1.4-.9-4.8c.5-4 5-5.4 5-5.4zm-17.8 2.7a6.5 6.5 0 0 1-6.5-6.5 6.5 6.5 0 0 1 6.5-6.5 6.5 6.5 0 0 1 6.5 6.5 6.5 6.5 0 0 1-6.5 6.5z"/><path d="M33.4 20.4s-5.5 1.7-3.5 8.8l9-1-5.3-7.8m-38 3.2s2.2-1.3 4.2 0 .9 6 .9 6l-7.7.5 2.6-6.5zM1 31.4l.6 10.2 8-4.3s0-2.9-2.8-4.6C3.9 31 1 31.4 1 31.4zm21 5.3s-.7-3.5-3.7-3.3c-3.1.2-4.5 3.3-4.5 3.3l5.3 5 2.9-5z"/></g></svg>
