<svg xmlns="http://www.w3.org/2000/svg" width="64" height="64"><path d="m50.6 33-2.3-.7.5-4.2-2-3.4-3.3-1v-3.2l-2.7-2.7-3.7-.7-.9-2.9-4.6-2.3-5.7 1.2-5.5 6.4L10 25.8l-2.4 6.7L9 36.8a8.8 8.8 0 0 1 4.9 4.2l2.5-1-3.3-6.3 5.8-11 1.1.7-5.5 10.3 2.9 5.3L29 26.7l1 .9-12.3 13 2.5 3.4 3.2 1.9 12.2-13 1 .8-12 12.8L31 50l9.5-9.8 1 1-9.3 9.5 5 2.4s11.5-8.6 13.6-10.7c2-2 2.2-5.7 2.2-5.7L50.6 33z" fill="#fff"/><path d="m48.2 15.8 3-5.2 2 2zm-31.5.2-5.2-3 2-2zm-.3 31.5-3 5.2-2-2zm31.9 0 5.2 3-2 2.1z" fill="#fff" fill-rule="evenodd"/></svg>
