<svg xmlns="http://www.w3.org/2000/svg" width="64" height="64"><path d="M-726.2 67.5s-5.3 4.8-8.5 16.5c-3.1 11.7-14.5 32.3-23 35 0 0-2.5 0-3 .7-.5.6-3.1 6.6 7.7 6.1s30.4-13.1 40-27.3c9-13.2 21.8-20.8 25.3-21 3.5-.2 3.5-4.3 3.5-5.5l-.5-10s-35 3-41.5 5.5z" fill="#666"/><g fill="#666"><path d="M-717.4 36.7c-.3 3.3.2 4.8.2 4.8l40.5-10.5c1.7-2.6 4.2-8 6-11.9l-46.7 17.7zm49.6-29-48 18.4c-1.8 2.4-1.2 7.4-1.2 7.4l47.9-18.2.2-.5c1.3-2.4 1.3-5.5 1-7.1z"/><path d="M-696.2 45.7c9.9-3.3 14.7-8 17-10.9l-37.6 9.4v11.6h-3.4C-720.6 25.3-719 25-719 25l52.3-20.5c2.5-5 4.4-15.5 3-14.2a252 252 0 0 1-39.2 19.3c-23 9.8-25.7 13.6-26.3 14.1-.5.6 0 7.2 0 7.2 2 10.1 2.7 31.1 2.7 31.1l39.3-4.4c-3.9-5-10-6.8-12.8-7.6-2.8-.7-4.3-1-3.4-1.8.6-.7 7-2.5 7-2.5z"/></g><g fill="#fff" stroke-width="1.1"><path d="M27.3 35.7s-2 1.7-3 5.8c-1.1 4.1-5.1 11.3-8 12.3 0 0-1 0-1.1.2-.2.2-1.1 2.3 2.7 2.2 3.7-.2 10.6-4.6 14-9.6 3.1-4.6 7.6-7.3 8.8-7.4 1.3 0 1.3-1.5 1.3-1.9l-.2-3.5s-12.3 1-14.5 2zm3-10.7c-.1 1.1.1 1.7.1 1.7L44.6 23a35 35 0 0 0 2-4.2L30.4 25zm17.4-10.2c-3.6 1.4-15.8 6-16.8 6.5-.6.8-.4 2.6-.4 2.6l16.7-6.4.1-.2c.5-.9.4-2 .4-2.5z"/><path d="M37.7 28.1c3.5-1.1 5.2-2.8 6-3.8l-13.2 3.3v4h-1.2c-.1-10.6.5-10.8.5-10.8L48 13.7c.9-1.8 1.5-5.5 1-5-.5.6-5.5 3.3-13.6 6.8-8.1 3.4-9 4.7-9.3 5-.2.1 0 2.4 0 2.4.7 3.6 1 11 1 11l13.7-1.6a8 8 0 0 0-4.5-2.7c-1-.2-1.4-.3-1.1-.6.2-.3 2.4-.9 2.4-.9z"/></g></svg>
