<svg xmlns="http://www.w3.org/2000/svg" width="83" height="81" viewBox="0 0 22 21"><path fill="#fff" d="M11 .85h.79l-.13-.6C10.56.12 9.26 0 8.06 0c-1.6 0-3 .2-4 .84l-.28 5.2h1.4l.15.35h5.7l.045-.35h1.4l-.067-.28h-.86zm5.4 2.6.027 2.4h3v-4.8l-8.2.008.58 4.5h1.5l.007-2.2c.077-1.2 2.9-1.4 3.1.066zm-2.9-.095c-.11.59.011 2.4-.066 3-.077.63-.49.24-.53.64h3.8c-.046-.35-.35-.07-.44-.64-.088-.57-.023-2.4-.14-3-.48-1.1-2.4-.82-2.6 0zm6.1-.63v2.4h2.3s.036-2.4 0-2.4zm-13 3.9c.009.93.85 1.6 1.8 1.4l1 1.1c.1-.18.25-.33.44-.43L9 7.705c.36-.28.58-.71.58-1.2zm6.7.55v.3L12 7.451l-1.4 1.2c.5.07.9.46.98.97l1-.84h.76v.84h-.94v.48h4.2v-.48h-.81v-2.4zm-2.9 1.6c-1.4-.044-1.4 2.1 0 2.1 1.3-.041 1.3-2 0-2.1zm5.4 6.7-1.1-1.2c-1.8.3-2.1-1.6-1.2-2.3 1-.79 2.5.13 2.1 1.4l1.1 1.3c1.2-1.5.97-3.4.33-4.5l-3.5 1.4h-1.9v1.3l-.88.47v1.2l.88-.49v1.3l-5.6 3.2-1.8.085-3.3 2.6h1.7l2.1-1.5 2.4.23zm-2.3-5.1v.91l2-.91zm1.1 3.5 1.6 1.8-.084.5 2.6 3-.17.45.35.32 2.1-1.9-.39-.44-.6.32-2.8-3-.44.1s-1.4-1.5-1.6-1.7zm-12 3.9-2.4 1.9.71.83 2.5-1.9zm17 1.8v.7l-.52.19v.9h2.7v-.85l-.5-.22v-.71zm-5.2-7.5c-1.4-.044-1.4 2.1 0 2.1 1.3-.041 1.3-2 0-2.1z"/></svg>