<svg xmlns="http://www.w3.org/2000/svg" xml:space="preserve" width="673.6" height="666"><path fill="currentColor" d="m505 146 12-121-97 71c-23-7-63.563-15-87-12L263 0l-18 102c-14 6-26 13-35 19 143 29 292 106 380 224 2-16 1-32.258.5-45l79-65-106-19c-12-27-39-54-58-71ZM0 153l114 158c80 4 103-91 65-141zm187 1c56 72 16 159-63 169 129 41 245 108 342 198-20-70 60-156 106-135 1-3 3-6 3-8-100-118-242-201-388-224Zm293 367 194 21-105-148c-58-4-107 91-89 127zm-315-16-17 161 130-93c19-46-64-108-113-68zm187 76 69 85 18-100c4-3 7-5 10-8-95.834-106-238-187-356-204v10l-80 67 106 17c8 18 21 41 37 53 87-66 157 57 134 78 22 4 37 4 61 3z"/></svg>