<svg xmlns="http://www.w3.org/2000/svg" xml:space="preserve" style="enable-background:new 0 0 800 800" viewBox="0 0 800 800"><path fill="currentColor" d="M454 603c-59-31-120-31-147-33 7-67 21-121 42-179 26-13 158-60 210-63 29 48 2 99-40 126-34 41-51 103-64 149zM347 374c-4-71-22-139-45-198-8-18 10-35 18-43 99-22 187-24 261-77-2 12 7 50-2 53-71 20-127 38-198 55-11 11-9 147 2 146v-4c1-17 4-42 4-59 10-8 103-1 168-4-15 26-40 36-67 45 19 8 39 14 56 27-68 11-134 31-198 59zM215 715c-19-1-41-54-16-61 62 18 87-26 105-69 20-3 150 20 142 33-20 51-64 84-106 96z"/><path fill="currentColor" d="M385 233c-2-12 2-28 11-30 66-8 134-27 189-33-2 16-12 62-27 62-61 2-120-5-174 1zm0-38c-3-12 1-20 14-24l187-54c3 13 5 41-3 43-70 7-133 29-197 34z"/></svg>
