<svg xmlns="http://www.w3.org/2000/svg" xml:space="preserve" width="649" height="664"><path fill="currentColor" d="M533 240c-18-12-113-97-122-126C465 67 536 34 594 0c16-1 61 41 53 57-43 72-70 138-115 183Zm-226 50c13 19 30 38 48 50-66 66-139 132-153 217-1 8-8 12-13 17-34-39-83-82-114-112-4-5 19-15 24-16 81-24 162-87 207-154zm92-165c31 52 72 93 124 124-23 31-73 42-97 48-5 3-9 1-14-1-24-16-44-36-60-61-2-4-3-7-1-11 3-38 13-58 48-98zM56 638c21-15 37-37 54-59-46 17-83 48-109 85 16-50 40-97 66-143-28 13-46 32-67 51l8-19c15-28 43-57 69-76 36 24 65 65 93 93-12 9-81 66-116 68Zm350-330c-11 6-36 29-44 24-18-11-36-29-47-48 0-12 20-32 26-42 14 29 36 50 65 65z"/></svg>
